<svg width="47" height="43" viewBox="0 0 47 43" fill="none" xmlns="http://www.w3.org/2000/svg">
<path fill-rule="evenodd" clip-rule="evenodd" d="M33.2511 10.5C33.2511 15.8848 28.8859 20.25 23.5011 20.25C18.1164 20.25 13.7511 15.8848 13.7511 10.5C13.7511 5.11522 18.1164 0.75 23.5011 0.75C28.8859 0.75 33.2511 5.11522 33.2511 10.5ZM30.0011 10.5C30.0011 14.0899 27.091 17 23.5011 17C19.9113 17 17.0011 14.0899 17.0011 10.5C17.0011 6.91015 19.9113 4 23.5011 4C27.091 4 30.0011 6.91015 30.0011 10.5Z" fill="#1B0F00"/>
<path d="M23.5011 25.125C12.9803 25.125 4.0162 31.3462 0.601562 40.0621C1.43339 40.8881 2.30966 41.6694 3.22647 42.4021C5.76918 34.4 13.7458 28.375 23.5011 28.375C33.2565 28.375 41.2331 34.4 43.7758 42.4021C44.6926 41.6694 45.5689 40.8881 46.4007 40.0621C42.9861 31.3462 34.022 25.125 23.5011 25.125Z" fill="#1B0F00"/>
</svg>
