<svg width="55" height="56" viewBox="0 0 55 56" fill="none" xmlns="http://www.w3.org/2000/svg">
<path d="M41.5786 23.4536C40.6267 22.3534 39.2828 21.6761 37.8386 21.5686H36.4086L32.4486 11.5887C32.4151 11.4329 32.3486 11.2861 32.2538 11.1585C32.1589 11.0308 32.0378 10.9254 31.8988 10.8492C31.7598 10.773 31.6062 10.728 31.4483 10.7171C31.2905 10.7063 31.1322 10.7299 30.9842 10.7863C30.8362 10.8428 30.7021 10.9307 30.5909 11.0442C30.4797 11.1576 30.3941 11.2939 30.34 11.4438C30.2858 11.5936 30.2643 11.7535 30.277 11.9125C30.2897 12.0714 30.3363 12.2258 30.4136 12.3649L34.0711 21.5686H16.9661L20.5961 12.254C20.6697 12.1149 20.7122 11.9612 20.7207 11.8038C20.7292 11.6464 20.7034 11.4889 20.6451 11.3426C20.5869 11.1963 20.4976 11.0646 20.3835 10.9567C20.2694 10.8488 20.1333 10.7674 19.9847 10.7181C19.8361 10.6689 19.6787 10.653 19.5233 10.6716C19.368 10.6902 19.2186 10.7428 19.0856 10.8257C18.9526 10.9087 18.8391 11.02 18.7533 11.1518C18.6674 11.2836 18.6112 11.4327 18.5886 11.5887L14.6286 21.5686H13.2811C13.025 21.5435 12.7671 21.5435 12.5111 21.5686C11.8053 21.7237 11.1381 22.0216 10.55 22.4444C9.96187 22.8672 9.46504 23.406 9.08962 24.0281C8.7142 24.6502 8.46801 25.3427 8.36598 26.0635C8.26396 26.7844 8.30821 27.5187 8.49607 28.2218L10.5311 40.4748C10.7045 41.6642 11.2869 42.7544 12.1766 43.555C13.0662 44.3556 14.2066 44.8156 15.3986 44.8549H35.8861C37.0859 44.7968 38.2261 44.3103 39.1028 43.4825C39.9795 42.6546 40.5354 41.5394 40.6711 40.3362L42.7061 28.2218C42.7194 27.9725 42.7194 27.7226 42.7061 27.4733C42.8645 26.0365 42.4599 24.5941 41.5786 23.4536ZM40.5611 27.7228L38.4986 40.0867C38.4475 40.8049 38.1414 41.4805 37.6363 41.9896C37.1312 42.4988 36.461 42.8074 35.7486 42.8589H15.4536C14.7391 42.8131 14.0657 42.5064 13.5595 41.9961C13.0533 41.4858 12.749 40.8069 12.7036 40.0867L10.6411 27.6396C10.5472 27.2355 10.5331 26.8168 10.5998 26.4072C10.6664 25.9976 10.8124 25.6053 11.0295 25.2526C11.2466 24.9 11.5304 24.5939 11.8648 24.3518C12.1993 24.1097 12.5777 23.9364 12.9786 23.8417H13.3636H37.7561C38.5632 23.9525 39.2976 24.3703 39.809 25.0094C40.3203 25.6486 40.5697 26.4607 40.5061 27.2792C40.5404 27.4246 40.5588 27.5734 40.5611 27.7228Z" fill="#1B0F00"/>
<path d="M18.6995 28.7773C18.4126 28.7846 18.1398 28.9046 17.9394 29.1118C17.7391 29.3189 17.6269 29.5969 17.627 29.8862V37.2325C17.602 37.3909 17.6113 37.5529 17.6543 37.7073C17.6974 37.8617 17.7731 38.0049 17.8764 38.1269C17.9797 38.2489 18.108 38.3469 18.2525 38.4141C18.3969 38.4813 18.5542 38.5161 18.7133 38.5161C18.8724 38.5161 19.0296 38.4813 19.1741 38.4141C19.3186 38.3469 19.4469 38.2489 19.5502 38.1269C19.6534 38.0049 19.7292 37.8617 19.7723 37.7073C19.8153 37.5529 19.8246 37.3909 19.7995 37.2325V29.8862C19.7995 29.5921 19.6836 29.3101 19.4773 29.1021C19.2711 28.8942 18.9913 28.7773 18.6995 28.7773Z" fill="#1B0F00"/>
<path d="M25.4908 28.7773C25.3476 28.7773 25.2059 28.8062 25.0739 28.8622C24.942 28.9183 24.8225 29.0004 24.7226 29.1037C24.6226 29.2071 24.5442 29.3296 24.4919 29.464C24.4397 29.5983 24.4146 29.7419 24.4183 29.8862V37.2325C24.4146 37.3768 24.4397 37.5204 24.4919 37.6547C24.5442 37.7891 24.6226 37.9116 24.7226 38.015C24.8225 38.1183 24.942 38.2004 25.0739 38.2565C25.2059 38.3125 25.3476 38.3414 25.4908 38.3414C25.7826 38.3414 26.0623 38.2245 26.2686 38.0166C26.4749 37.8086 26.5908 37.5266 26.5908 37.2325V29.8862C26.5908 29.5921 26.4749 29.3101 26.2686 29.1021C26.0623 28.8942 25.7826 28.7773 25.4908 28.7773Z" fill="#1B0F00"/>
<path d="M32.2836 28.7773C31.9919 28.7773 31.7121 28.8942 31.5058 29.1021C31.2995 29.3101 31.1836 29.5921 31.1836 29.8862V37.2325C31.1836 37.5266 31.2995 37.8086 31.5058 38.0166C31.7121 38.2245 31.9919 38.3414 32.2836 38.3414C32.4268 38.3414 32.5685 38.3125 32.7005 38.2565C32.8324 38.2004 32.9519 38.1183 33.0519 38.015C33.1518 37.9116 33.2302 37.7891 33.2825 37.6547C33.3347 37.5204 33.3598 37.3768 33.3561 37.2325V29.8862C33.3598 29.7419 33.3347 29.5983 33.2825 29.464C33.2302 29.3296 33.1518 29.2071 33.0519 29.1037C32.9519 29.0004 32.8324 28.9183 32.7005 28.8622C32.5685 28.8062 32.4268 28.7773 32.2836 28.7773Z" fill="#1B0F00"/>
</svg>
