<svg width="38" height="39" viewBox="0 0 38 39" fill="none" xmlns="http://www.w3.org/2000/svg">
<path d="M30.0833 0.5H7.91667C3.54508 0.5 0 4.04508 0 8.41667V30.5833C0 34.9549 3.54508 38.5 7.91667 38.5H30.0833C34.4565 38.5 38 34.9549 38 30.5833V8.41667C38 4.04508 34.4565 0.5 30.0833 0.5ZM12.6667 30.5833H7.91667V13.1667H12.6667V30.5833ZM10.2917 11.159C8.76217 11.159 7.52083 9.90817 7.52083 8.366C7.52083 6.82383 8.76217 5.573 10.2917 5.573C11.8212 5.573 13.0625 6.82383 13.0625 8.366C13.0625 9.90817 11.8228 11.159 10.2917 11.159ZM31.6667 30.5833H26.9167V21.7103C26.9167 16.3777 20.5833 16.7814 20.5833 21.7103V30.5833H15.8333V13.1667H20.5833V15.9613C22.7937 11.8668 31.6667 11.5643 31.6667 19.8816V30.5833Z" fill="#1E1E1E"/>
</svg>
