<svg width="38" height="39" viewBox="0 0 38 39" fill="none" xmlns="http://www.w3.org/2000/svg">
<path d="M19 3.92475C24.073 3.92475 24.6747 3.94375 26.6792 4.03558C31.8282 4.26992 34.2332 6.713 34.4676 11.824C34.5594 13.8269 34.5768 14.4286 34.5768 19.5016C34.5768 24.5762 34.5578 25.1763 34.4676 27.1792C34.2317 32.2854 31.8329 34.7332 26.6792 34.9676C24.6747 35.0594 24.0762 35.0784 19 35.0784C13.927 35.0784 13.3253 35.0594 11.3224 34.9676C6.16075 34.7317 3.76833 32.2775 3.534 27.1776C3.44217 25.1747 3.42317 24.5746 3.42317 19.5C3.42317 14.427 3.44375 13.8269 3.534 11.8224C3.76992 6.713 6.16867 4.26833 11.3224 4.034C13.3269 3.94375 13.927 3.92475 19 3.92475ZM19 0.5C13.8399 0.5 13.1939 0.522167 11.1673 0.614C4.26708 0.930667 0.43225 4.75917 0.115583 11.6657C0.0221667 13.6939 0 14.3399 0 19.5C0 24.6601 0.0221667 25.3077 0.114 27.3343C0.430667 34.2345 4.25917 38.0693 11.1657 38.386C13.1939 38.4778 13.8399 38.5 19 38.5C24.1601 38.5 24.8077 38.4778 26.8343 38.386C33.7282 38.0693 37.5725 34.2408 37.8844 27.3343C37.9778 25.3077 38 24.6601 38 19.5C38 14.3399 37.9778 13.6939 37.886 11.6673C37.5757 4.77342 33.7424 0.93225 26.8359 0.615583C24.8077 0.522167 24.1601 0.5 19 0.5ZM19 9.7435C13.6119 9.7435 9.2435 14.1119 9.2435 19.5C9.2435 24.8881 13.6119 29.2581 19 29.2581C24.3881 29.2581 28.7565 24.8897 28.7565 19.5C28.7565 14.1119 24.3881 9.7435 19 9.7435ZM19 25.8333C15.5024 25.8333 12.6667 22.9992 12.6667 19.5C12.6667 16.0024 15.5024 13.1667 19 13.1667C22.4976 13.1667 25.3333 16.0024 25.3333 19.5C25.3333 22.9992 22.4976 25.8333 19 25.8333ZM29.1428 7.07875C27.8825 7.07875 26.8613 8.1 26.8613 9.35875C26.8613 10.6175 27.8825 11.6388 29.1428 11.6388C30.4016 11.6388 31.4212 10.6175 31.4212 9.35875C31.4212 8.1 30.4016 7.07875 29.1428 7.07875Z" fill="#1E1E1E"/>
</svg>
