<svg width="68" height="68" viewBox="0 0 68 68" fill="none" xmlns="http://www.w3.org/2000/svg">
<path d="M43.9167 68C43.1332 68 42.5 67.3667 42.5 66.5833V1.41667C42.5 0.63325 43.1332 0 43.9167 0C44.7001 0 45.3333 0.63325 45.3333 1.41667V66.5833C45.3333 67.3667 44.7001 68 43.9167 68Z" fill="#1B0F00"/>
<path d="M52.4177 43.9167H43.9177C43.1343 43.9167 42.501 43.2834 42.501 42.5C42.501 41.7166 43.1343 41.0833 43.9177 41.0833H50.9954C50.8069 17.2805 45.9166 3.315 43.8922 2.8305C43.1102 2.8305 42.4883 2.19867 42.4883 1.41525C42.4883 0.63325 43.1343 0 43.9177 0C49.8507 0 53.8344 21.9753 53.8344 42.5C53.8344 43.2834 53.2011 43.9167 52.4177 43.9167Z" fill="#1B0F00"/>
<path d="M24.0846 25.5C18.6177 25.5 14.168 21.0502 14.168 15.5833V1.41667C14.168 0.63325 14.8012 0 15.5846 0C16.3681 0 17.0013 0.63325 17.0013 1.41667V15.5833C17.0013 19.4891 20.1789 22.6667 24.0846 22.6667C27.9904 22.6667 31.168 19.4891 31.168 15.5833V1.41667C31.168 0.63325 31.8012 0 32.5846 0C33.3681 0 34.0013 0.63325 34.0013 1.41667V15.5833C34.0013 21.0502 29.5516 25.5 24.0846 25.5Z" fill="#1B0F00"/>
<path d="M24.0846 68C23.3012 68 22.668 67.3667 22.668 66.5833V1.41667C22.668 0.63325 23.3012 0 24.0846 0C24.8681 0 25.5013 0.63325 25.5013 1.41667V66.5833C25.5013 67.3667 24.8681 68 24.0846 68Z" fill="#1B0F00"/>
</svg>
